<?xml version="1.0" standalone="yes"?>

<svg version="1.1" viewBox="0.0 0.0 80.0 80.0" fill="none" stroke="none" stroke-linecap="square" stroke-miterlimit="10" xmlns="http://www.w3.org/2000/svg" xmlns:xlink="http://www.w3.org/1999/xlink"><clipPath id="p.0"><path d="m0 0l80.0 0l0 80.0l-80.0 0l0 -80.0z" clip-rule="nonzero"></path></clipPath><g clip-path="url(#p.0)"><path fill="#000000" fill-opacity="0.0" d="m0 0l80.0 0l0 80.0l-80.0 0z" fill-rule="nonzero"></path><path fill="#000000" d="m12.638858 25.257122l8.845782 -10.220414l18.51536 16.025066l18.515362 -16.025066l8.845783 10.220414l-17.03392 14.742878l17.03392 14.742878l-8.845783 10.220417l-18.515362 -16.02507l-18.51536 16.02507l-8.845782 -10.220417l17.03392 -14.742878z" fill-rule="nonzero"></path><path stroke="#000000" stroke-width="3.0" stroke-linejoin="round" stroke-linecap="butt" d="m12.638858 25.257122l8.845782 -10.220414l18.51536 16.025066l18.515362 -16.025066l8.845783 10.220414l-17.03392 14.742878l17.03392 14.742878l-8.845783 10.220417l-18.515362 -16.02507l-18.51536 16.02507l-8.845782 -10.220417l17.03392 -14.742878z" fill-rule="nonzero"></path><path fill="#000000" fill-opacity="0.0" d="m5.5433073 40.0l0 0c0 -19.412592 15.426787 -35.149605 34.45669 -35.149605l0 0c9.138485 0 17.90268 3.7032514 24.364563 10.295082c6.4618835 6.5918293 10.092133 15.532269 10.092133 24.854525l0 0c0 19.41259 -15.426788 35.149605 -34.456696 35.149605l0 0c-19.029905 0 -34.45669 -15.737015 -34.45669 -35.149605z" fill-rule="nonzero"></path><path stroke="#000000" stroke-width="4.0" stroke-linejoin="round" stroke-linecap="butt" d="m5.5433073 40.0l0 0c0 -19.412592 15.426787 -35.149605 34.45669 -35.149605l0 0c9.138485 0 17.90268 3.7032514 24.364563 10.295082c6.4618835 6.5918293 10.092133 15.532269 10.092133 24.854525l0 0c0 19.41259 -15.426788 35.149605 -34.456696 35.149605l0 0c-19.029905 0 -34.45669 -15.737015 -34.45669 -35.149605z" fill-rule="nonzero"></path><path fill="#000000" fill-opacity="0.0" d="m2.343832 2.0288713l34.519684 0l0 43.11811l-34.519684 0z" fill-rule="nonzero"></path></g></svg>

