<?xml version="1.0" standalone="yes"?>

<svg version="1.1" viewBox="0.0 0.0 80.0 80.0" fill="none" stroke="none" stroke-linecap="square" stroke-miterlimit="10" xmlns="http://www.w3.org/2000/svg" xmlns:xlink="http://www.w3.org/1999/xlink"><clipPath id="p.0"><path d="m0 0l80.0 0l0 80.0l-80.0 0l0 -80.0z" clip-rule="nonzero"></path></clipPath><g clip-path="url(#p.0)"><path fill="#000000" fill-opacity="0.0" d="m0 0l80.0 0l0 80.0l-80.0 0z" fill-rule="nonzero"></path><path fill="#000000" fill-opacity="0.0" d="m2.343832 2.0288713l34.519684 0l0 43.11811l-34.519684 0z" fill-rule="nonzero"></path><path fill="#000000" fill-opacity="0.0" d="m-12.984252 6.5065618l104.47244 0l0 39.559055l-104.47244 0z" fill-rule="nonzero"></path><path fill="#000000" d="m21.411943 43.66656l0 -16.90625l-7.500001 13.078125l-1.1875 0l-7.546875 -13.078125l0 16.90625l-2.0 0l0 -20.59375l2.0625 0l8.0625 14.09375l8.062501 -14.09375l2.0625 0l0 20.59375l-2.015625 0zm13.640699 0.296875q-1.65625 0 -3.046875 -0.625q-1.3906231 -0.625 -2.406248 -1.703125q-1.015625 -1.09375 -1.59375 -2.515625q-0.5625 -1.421875 -0.5625 -3.046875q0 -1.59375 0.5625 -3.0q0.578125 -1.40625 1.59375 -2.46875q1.015625 -1.0625 2.390625 -1.6875q1.3749981 -0.625 3.031248 -0.625q1.65625 0 3.03125 0.625q1.375 0.625 2.359375 1.703125q0.984375 1.0625 1.53125 2.46875q0.5625 1.390625 0.5625 2.953125q0 0.234375 -0.015625 0.46875q-0.015625 0.21875 -0.046875 0.3125l-12.906248 0q0.09375 1.21875 0.5625 2.25q0.484375 1.03125 1.21875 1.78125q0.7343731 0.75 1.7031231 1.171875q0.984375 0.421875 2.078125 0.421875q0.765625 0 1.484375 -0.203125q0.71875 -0.203125 1.328125 -0.546875q0.609375 -0.34375 1.09375 -0.84375q0.484375 -0.515625 0.734375 -1.125l1.71875 0.453125q-0.34375 0.84375 -0.984375 1.53125q-0.640625 0.671875 -1.484375 1.1875q-0.84375 0.5 -1.859375 0.78125q-1.015625 0.28125 -2.078125 0.28125zm5.5625 -8.65625q-0.09375 -1.203125 -0.578125 -2.203125q-0.46875 -1.015625 -1.203125 -1.734375q-0.734375 -0.71875 -1.734375 -1.125q-0.984375 -0.40625 -2.078125 -0.40625q-1.109375 0 -2.09375 0.40625q-0.9843731 0.40625 -1.7343731 1.125q-0.734375 0.71875 -1.1875 1.734375q-0.4375 1.015625 -0.53125 2.203125l11.140623 0zm17.731232 8.359375l-1.96875 0l0 -8.4375q0 -2.703125 -0.78125 -3.921875q-0.78125 -1.21875 -2.4375 -1.21875q-0.859375 0 -1.734375 0.328125q-0.875 0.3125 -1.625 0.890625q-0.75 0.578125 -1.328125 1.390625q-0.5625 0.796875 -0.84375 1.71875l0 9.25l-1.984375 0l0 -15.109375l1.8125 0l0 3.421875q0.453125 -0.8125 1.125 -1.484375q0.6875 -0.6875 1.53125 -1.171875q0.84375 -0.5 1.78125 -0.765625q0.953125 -0.265625 1.96875 -0.265625q1.265625 0 2.125 0.46875q0.859375 0.46875 1.375 1.3125q0.53125 0.828125 0.75 2.046875q0.234375 1.21875 0.234375 2.703125l0 8.84375zm8.949722 0.296875q-2.375 0 -3.59375 -1.640625q-1.21875 -1.640625 -1.21875 -4.890625l0 -8.875l1.96875 0l0 8.53125q0 5.125 3.515625 5.125q0.875 0 1.703125 -0.28125q0.84375 -0.296875 1.546875 -0.84375q0.71875 -0.546875 1.28125 -1.296875q0.578125 -0.765625 0.921875 -1.71875l0 -9.515625l1.96875 0l0 12.5625q0 0.8125 0.734375 0.8125l0 1.734375q-0.59375 0.09375 -0.8125 0.09375q-0.671875 0 -1.15625 -0.40625q-0.46875 -0.40625 -0.46875 -1.015625l0 -2.09375q-1.015625 1.765625 -2.703125 2.75q-1.6875 0.96875 -3.6875 0.96875z" fill-rule="nonzero"></path><path fill="#000000" fill-opacity="0.0" d="m3.255 53.541714l73.490005 0l0 5.163288l-73.490005 0z" fill-rule="nonzero"></path><path stroke="#000000" stroke-width="2.0" stroke-linejoin="round" stroke-linecap="butt" d="m3.255 53.541714l73.490005 0l0 5.163288l-73.490005 0z" fill-rule="nonzero"></path><path fill="#000000" fill-opacity="0.0" d="m3.255 61.541714l73.490005 0l0 5.163288l-73.490005 0z" fill-rule="nonzero"></path><path stroke="#000000" stroke-width="2.0" stroke-linejoin="round" stroke-linecap="butt" d="m3.255 61.541714l73.490005 0l0 5.163288l-73.490005 0z" fill-rule="nonzero"></path><path fill="#000000" fill-opacity="0.0" d="m3.255 69.54172l73.490005 0l0 5.1632843l-73.490005 0z" fill-rule="nonzero"></path><path stroke="#000000" stroke-width="2.0" stroke-linejoin="round" stroke-linecap="butt" d="m3.255 69.54172l73.490005 0l0 5.1632843l-73.490005 0z" fill-rule="nonzero"></path><path fill="#000000" fill-opacity="0.0" d="m78.362206 6.5065618l-61.79241 0l-14.931996 5.9212594l14.931996 5.92126l61.79241 0l-14.931995 -5.92126z" fill-rule="nonzero"></path><path stroke="#323232" stroke-width="2.0" stroke-linejoin="round" stroke-linecap="butt" d="m78.362206 6.5065618l-61.79241 0l-14.931996 5.9212594l14.931996 5.92126l61.79241 0l-14.931995 -5.92126z" fill-rule="nonzero"></path></g></svg>

